<!-- Simple SVG icon as placeholder -->
<svg xmlns="http://www.w3.org/2000/svg" width="512" height="512" viewBox="0 0 512 512">
  <rect width="512" height="512" fill="#2563eb" rx="128"/>
  <path fill="white" d="M256 128c-52.8 0-96 43.2-96 96s43.2 96 96 96 96-43.2 96-96-43.2-96-96-96zm0 160c-35.2 0-64-28.8-64-64s28.8-64 64-64 64 28.8 64 64-28.8 64-64 64z"/>
  <circle cx="256" cy="224" r="32" fill="white"/>
  <path fill="white" d="M256 336c-70.4 0-128 57.6-128 128v16h256v-16c0-70.4-57.6-128-128-128z"/>
</svg>
